<?xml version="1.0" standalone="no"?><!DOCTYPE svg PUBLIC "-//W3C//DTD SVG 1.1//EN" "http://www.w3.org/Graphics/SVG/1.1/DTD/svg11.dtd"><svg t="1754321890918" class="icon" viewBox="0 0 1024 1024" version="1.1" xmlns="http://www.w3.org/2000/svg" p-id="17211" xmlns:xlink="http://www.w3.org/1999/xlink" width="48" height="48"><path d="M852.053333 912.426667l-143.189333-143.189334c-61.781333 28.16-128.981333 42.282667-196.864 41.514667-69.973333 0.853333-139.221333-14.250667-202.496-44.16a429.866667 429.866667 0 0 1-129.749333-97.365333A448 448 0 0 1 89.6 525.482667l-4.266667-13.397334 4.48-13.482666a460.202667 460.202667 0 0 1 150.016-198.442667L128 188.330667l60.288-60.245334 724.010667 724.010667-60.16 60.330667h-0.085334zM300.202667 360.576a365.824 365.824 0 0 0-124.544 151.509333 354.474667 354.474667 0 0 0 336.341333 213.333334 397.141333 397.141333 0 0 0 131.712-21.333334l-76.8-76.8c-17.066667 8.362667-35.84 12.757333-54.912 12.8a128.810667 128.810667 0 0 1-128-128c0-19.072 4.394667-37.888 12.8-55.04L300.202667 360.576z m546.816 305.536l-59.392-59.349333a366.72 366.72 0 0 0 60.714666-94.677334 354.133333 354.133333 0 0 0-336.341333-213.333333c-10.538667 0-21.12 0.384-31.36 1.109333L405.333333 224.469333a499.626667 499.626667 0 0 1 106.666667-11.050666c69.973333-0.853333 139.221333 14.250667 202.496 44.16 49.066667 23.893333 93.056 56.96 129.749333 97.365333 38.912 41.685333 69.546667 90.453333 90.154667 143.573333l4.266667 13.568-4.48 13.482667a444.885333 444.885333 0 0 1-87.125334 140.8l-0.042666-0.256z" p-id="17212" fill="#1296db"></path></svg>