<?xml version="1.0" standalone="no"?><!DOCTYPE svg PUBLIC "-//W3C//DTD SVG 1.1//EN" "http://www.w3.org/Graphics/SVG/1.1/DTD/svg11.dtd"><svg t="1754320470047" class="icon" viewBox="0 0 1251 1024" version="1.1" xmlns="http://www.w3.org/2000/svg" p-id="14129" xmlns:xlink="http://www.w3.org/1999/xlink" width="58.640625" height="48"><path d="M1058.614764 157.830635l-129.97817 37.13662c-107.659062-43.72837-219.068922-65.37902-334.22958-64.989085-72.787775 43.357004-109.924395 108.346089-111.409861 194.967256-24.547306 3.156613-46.216524-3.026635-64.989085-18.56831-4.159301-48.463289 5.124854-94.884064 27.852465-139.262326-84.857177 11.512352-152.94717 51.731312-204.25141 120.694015-51.74988-18.141239-107.45481-24.324486-167.11479-18.56831C263.408319 60.904057 498.594534-16.488659 780.090114 37.13662c104.409607 17.13855 197.251157 57.376078 278.52465 120.694015z" fill="#25A0FB" p-id="14130"></path><path d="M1058.614764 157.830635a809.578317 809.578317 0 0 1 148.546481 241.388031v18.56831c-41.500173-5.477651-78.636793 0.724164-111.409861 18.56831-32.828772-96.703759-88.533702-177.178814-167.11479-241.388031l129.97817-37.13662z" fill="#2FABF6" p-id="14131"></path><path d="M668.680254 213.535565c148.806437-32.290291 257.115389 17.231392 324.945425 148.546481a156.605127 156.605127 0 0 1 9.284155 74.27324h-74.27324c-9.766931-59.54857-40.701736-105.969345-92.84155-139.262326-54.405148-30.823395-110.110078-36.988074-167.11479-18.56831-21.984879-21.279283-21.984879-42.929933 0-64.989085z" fill="#31ADF5" p-id="14132"></path><path d="M74.494333 269.240495c59.65998-5.756176 115.36491 0.427071 167.11479 18.56831 3.676525 38.529243 6.777433 75.665863 9.284155 111.409861-50.301552 22.393382-81.236356 3.825072-92.84155-55.70493l-27.852465 55.70493h-111.40986v-55.70493a5644.357747 5644.357747 0 0 0 55.70493-74.273241z" fill="#33AFF2" p-id="14133"></path><path d="M427.292223 584.901766h-167.11479c14.149052-14.260462 32.717362-23.544617 55.70493-27.852465-35.539745-53.51387-41.741561-109.2188-18.56831-167.11479 17.639895-11.456647 33.088728-8.35574 46.420775 9.284155 4.326416 42.335747 19.793818 79.472367 46.420775 111.40986a1363.378164 1363.378164 0 0 1 334.229581-83.557395c9.061335-40.404643 27.629645-74.458923 55.70493-102.125705 52.065541 62.63091 45.882294 121.436748-18.56831 176.398945-117.277446 9.841204-228.687306 37.693669-334.229581 83.557395z" fill="#42BBE9" p-id="14134"></path><path d="M18.789403 399.218666h111.40986c-28.038148 101.921454 9.098472 163.809631 111.40986 185.6831H37.357713c0-12.385063-6.183247-18.56831-18.56831-18.56831v-167.11479z" fill="#44BEE7" p-id="14135"></path><path d="M1095.751384 436.355286c32.773067-17.844146 69.909687-24.045961 111.409861-18.56831v185.6831l-37.13662 18.56831h-445.639441c38.993451-20.647961 82.313318-33.033024 129.97817-37.13662a775.115534 775.115534 0 0 1-18.56831-167.11479h74.27324c-15.188878 88.050926 18.846835 137.572609 102.125705 148.54648 93.769966-3.676525 121.622431-47.014961 83.557395-129.97817z" fill="#48C1E4" p-id="14136"></path><path d="M37.357713 584.901766h389.93451c-20.666529 69.538321 7.185936 112.858188 83.557395 129.97817a3240.634308 3240.634308 0 0 1 213.535566-92.84155h445.639441c-39.179134 26.92405-63.930691 64.06067-74.273241 111.40986-47.534874 5.60763-90.854741-0.594186-129.97817-18.56831 28.855154-25.902792 22.671907-38.269287-18.56831-37.13662-72.267863 11.809445-140.339287 30.377755-204.25141 55.70493-133.450444-6.034701-263.428614 0.167115-389.934511 18.56831-16.525796-14.130484-28.929427-32.698794-37.13662-55.70493a792.996817 792.996817 0 0 0-167.11479-27.852465c-48.389016-14.706102-85.525636-42.558567-111.40986-83.557395z" fill="#51CBDE" p-id="14137"></path><path d="M965.773214 714.879936c39.123429 17.974124 82.443297 24.17594 129.97817 18.56831-69.519753 105.969345-168.563118 158.573368-297.09296 157.830635 25.27147 29.412203 37.656533 63.466484 37.13662 102.125706h-74.27324a590.639374 590.639374 0 0 0-129.97817-204.251411l-18.56831 27.852465a445.082391 445.082391 0 0 1 74.27324 176.398946h-74.27324a1105.185813 1105.185813 0 0 0-92.841551-167.114791c-65.861796-7.334482-121.566726-32.104608-167.11479-74.27324 126.505896-18.401195 256.484066-24.603011 389.934511-18.56831 79.230979 53.235345 153.504219 47.033529 222.81972-18.56831z" fill="#5DD6D6" p-id="14138"></path></svg>